<svg width="60" height="12" viewBox="0 0 60 12" fill="none" xmlns="http://www.w3.org/2000/svg">
<g clip-path="url(#clip0_101_1070)">
<g clip-path="url(#clip1_101_1070)">
<path fill-rule="evenodd" clip-rule="evenodd" d="M5.16679 7.84474L6.8372 9.55152L5.44374 11.0357C4.99187 11.517 4.25911 11.517 3.80725 11.0357L0.329743 7.33194C-0.122121 6.85052 -0.122121 6.07024 0.329743 5.58898C0.781752 5.10771 1.51437 5.10771 1.96623 5.58898L4.62549 8.42126L5.16679 7.84474ZM5.60101 7.38227L7.08051 5.8065L8.71686 7.54947L7.35452 9.00051L5.60101 7.38227Z" fill="#CECCD3"/>
<path fill-rule="evenodd" clip-rule="evenodd" d="M12.2952 8.9673L10.5517 7.33839L14.649 2.97444C15.1009 2.49318 15.8335 2.49318 16.2855 2.97444C16.7374 3.45571 16.7374 4.23599 16.2855 4.71741L12.2952 8.9673ZM11.753 9.54482L10.3537 11.0352C9.90168 11.5164 9.16907 11.5164 8.7172 11.0352L2.78482 4.71679C2.33296 4.23538 2.33296 3.45509 2.78482 2.97383C3.23669 2.49241 3.9693 2.49241 4.42131 2.97383L9.53545 8.42072L10.1106 7.80809L11.753 9.54482Z" fill="#CECCD3"/>
<path fill-rule="evenodd" clip-rule="evenodd" d="M9.78114 6.9391L11.4099 5.18803L14.4454 8.42106L17.1041 5.5894C17.5561 5.10813 18.2887 5.10813 18.7406 5.5894C19.1924 6.07082 19.1924 6.8511 18.7406 7.33236L15.2637 11.0355C14.8118 11.5168 14.0792 11.5168 13.6273 11.0355L9.78114 6.9391ZM9.1064 6.22046L5.2399 2.10238C4.78803 1.62112 4.78803 0.840834 5.2399 0.359569C5.69191 -0.12185 6.42452 -0.12185 6.87639 0.359569L10.7469 4.48191L9.1064 6.22046Z" fill="#CECCD3"/>
<path fill-rule="evenodd" clip-rule="evenodd" d="M13.8307 0.36043C13.3789 -0.120835 12.6463 -0.120835 12.1942 0.36043L7.08069 5.8067L8.71718 7.54967L13.8307 2.1034C14.2826 1.62198 14.2826 0.841695 13.8307 0.36043Z" fill="#CECCD3"/>
<path fill-rule="evenodd" clip-rule="evenodd" d="M25.0701 1.21093H23.6471V10.1136H28.8609V8.76912H25.0701V1.21093ZM31.9406 3.88779C32.8058 3.88779 33.3864 4.26327 33.7051 4.72355L33.7734 4.00891H35.0029V10.1136H33.7734L33.7051 9.39897C33.3864 9.85925 32.8058 10.2347 31.9406 10.2347C30.381 10.2347 29.3223 8.89025 29.3223 7.06126C29.3223 5.22016 30.381 3.88779 31.9406 3.88779ZM32.2366 5.17171C31.3487 5.17171 30.7112 5.91057 30.7112 7.06126C30.7112 8.21195 31.3487 8.95081 32.2366 8.95081C32.9196 8.95081 33.3295 8.56321 33.6368 8.04237V6.08015C33.3295 5.55931 32.9196 5.17171 32.2366 5.17171ZM38.4469 1.9619H37.0808V4.00891H35.9993V5.24439H37.0808V7.95759C37.0808 9.43531 37.9118 10.2347 39.221 10.2347C39.7902 10.2347 40.2114 10.0652 40.496 9.87136L40.1317 8.73279C39.9609 8.8418 39.7105 8.92659 39.3462 8.92659C38.8112 8.92659 38.4469 8.56321 38.4469 7.94547V5.24439H40.1772V4.00891H38.4469V1.9619ZM43.1545 1.9619H41.7884V4.00891H40.7069V5.24439H41.7884V7.95759C41.7884 9.43531 42.6194 10.2347 43.9286 10.2347C44.4978 10.2347 44.919 10.0652 45.2036 9.87136L44.8393 8.73279C44.6685 8.8418 44.4181 8.92659 44.0538 8.92659C43.5187 8.92659 43.1545 8.56321 43.1545 7.94547V5.24439H44.8848V4.00891H43.1545V1.9619ZM47.4864 4.00891H46.1203V10.1136H47.4864V4.00891ZM46.8033 1.16248C46.3252 1.16248 45.9609 1.53796 45.9609 2.0588C45.9609 2.57964 46.3252 2.95513 46.8033 2.95513C47.2929 2.95513 47.6571 2.57964 47.6571 2.0588C47.6571 1.53796 47.2929 1.16248 46.8033 1.16248ZM51.6134 3.88779C49.8489 3.88779 48.6763 5.22016 48.6763 7.06126C48.6763 8.89025 49.8603 10.2347 51.6248 10.2347C52.6607 10.2347 53.4462 9.73812 53.9585 8.89025L52.9795 8.07871C52.7062 8.56321 52.2623 8.96292 51.6362 8.96292C50.623 8.96292 50.0652 8.12716 50.0652 7.06126C50.0652 5.98325 50.6002 5.1596 51.6248 5.1596C52.2623 5.1596 52.6835 5.5472 52.9453 6.0317L53.9357 5.23228C53.4234 4.3844 52.6607 3.88779 51.6134 3.88779ZM57.3 3.88779C59.0645 3.88779 59.9297 5.29284 59.9297 7.0007V7.50942H55.877C55.9112 8.47842 56.4576 9.01137 57.4138 9.01137C58.0855 9.01137 58.575 8.69645 58.8368 8.30885L59.7817 9.1325C59.2125 9.85925 58.4612 10.2347 57.4025 10.2347C55.6266 10.2347 54.4882 8.90236 54.4882 7.07337C54.4882 5.23227 55.6493 3.88779 57.3 3.88779ZM57.2772 5.05059C56.469 5.05059 55.9225 5.61987 55.877 6.46775H58.5864C58.5522 5.63199 58.0969 5.05059 57.2772 5.05059Z" fill="white" fill-opacity="0.8"/>
</g>
</g>
<defs>
<clipPath id="clip0_101_1070">
<rect width="60" height="11.4" fill="white"/>
</clipPath>
<clipPath id="clip1_101_1070">
<rect width="60" height="11.4" fill="white"/>
</clipPath>
</defs>
</svg>
