<svg width="28" height="10" viewBox="0 0 28 10" fill="none" xmlns="http://www.w3.org/2000/svg">
<path d="M2.73758 2.55266H0L0 0H8.50811V2.55266H5.76995V10H2.73758V2.55266ZM8.97892 0H17.2516V2.55266H12.0116V3.78399H17.2516V6.18604H12.0116V7.44734H17.2516V10H8.97892V0ZM17.7518 0H22.7271C25.9951 0 27.1429 2.46258 27.1429 4.98519C27.1429 8.04819 25.5528 10 22.1382 10H17.7518V0ZM20.7844 7.44734H21.9614C23.8455 7.44734 24.1111 5.88608 24.1111 4.95521C24.1111 4.32431 23.905 2.58272 21.726 2.58272H20.7542L20.7844 7.44734Z" fill="white" fill-opacity="0.8"/>
</svg>
