<svg width="214" height="42" viewBox="0 0 214 42" fill="none" xmlns="http://www.w3.org/2000/svg">
<path d="M132.065 40.4133H139.105V0H132.065V40.4133Z" fill="#080808"/>
<path fill-rule="evenodd" clip-rule="evenodd" d="M93.2506 40.0006C94.7809 40.6368 96.3369 40.9548 97.9187 40.9548C100.532 40.9548 102.87 40.3187 104.934 39.0464C106.997 37.7741 108.596 36.0203 109.731 33.7852C110.865 31.5328 111.433 28.9796 111.433 26.1255C111.433 23.2714 110.848 20.7181 109.679 18.4658C108.51 16.2134 106.885 14.4683 104.805 13.2304C102.724 11.9753 100.36 11.3563 97.7123 11.3735C96.0274 11.3735 94.4112 11.7002 92.8638 12.3535C91.3164 13.0069 90.0269 13.9353 88.9953 15.1389C88.9156 15.2305 88.8382 15.323 88.7631 15.4165V0.0257902H81.6966V40.4133H88.7116L88.6974 36.6403C88.879 36.8627 89.0728 37.0802 89.279 37.2926C90.3965 38.4446 91.7204 39.3473 93.2506 40.0006ZM100.472 33.4757C99.3199 34.1806 98.0046 34.5331 96.526 34.5331C95.0646 34.5331 93.7235 34.172 92.5027 33.4499C91.282 32.7106 90.3106 31.7048 89.5884 30.4324C88.8835 29.1601 88.531 27.7159 88.531 26.0997C88.5138 24.4835 88.8577 23.0393 89.5626 21.7669C90.2848 20.4774 91.2562 19.4802 92.4769 18.7753C93.6977 18.0531 95.0474 17.7007 96.526 17.7179C98.0046 17.7007 99.3199 18.0445 100.472 18.7495C101.641 19.4372 102.535 20.4258 103.154 21.7154C103.79 22.9877 104.108 24.4491 104.108 26.0997C104.108 27.7503 103.79 29.2117 103.154 30.484C102.535 31.7563 101.641 32.7536 100.472 33.4757Z" fill="#080808"/>
<path d="M0 2.45007H8.04655L15.2445 28.7373L22.9017 2.45007H29.6072L37.9118 28.2098L44.8234 2.45007H52.1994L41.3159 40.4133H34.3784L25.9338 15.2482L18.1821 40.4133H11.1672L0 2.45007Z" fill="#080808"/>
<path fill-rule="evenodd" clip-rule="evenodd" d="M64.0819 41.0838C61.2794 41.101 58.7519 40.482 56.4996 39.2269C54.2644 37.9546 52.5021 36.1923 51.2126 33.9399C49.9403 31.6876 49.3041 29.1171 49.3041 26.2286C49.3041 23.4261 49.9575 20.8901 51.2642 18.6205C52.5709 16.351 54.3418 14.5801 56.577 13.3077C58.8121 12.0354 61.3052 11.3993 64.0561 11.3993C67.151 11.3993 69.8589 12.087 72.18 13.4625C74.5184 14.838 76.2635 16.7894 77.4155 19.3169C78.5846 21.8271 79.0059 24.707 78.6792 27.9566H56.5879C56.6497 29.2512 56.9727 30.429 57.557 31.4898C58.2103 32.659 59.1216 33.5702 60.2908 34.2236C61.4599 34.877 62.7666 35.2036 64.2109 35.2036C65.3113 35.1864 66.3343 34.9973 67.2799 34.6362C68.2255 34.258 69.025 33.7508 69.6784 33.1146C70.3489 32.4785 70.8218 31.7563 71.0969 30.9482H78.4729C78.0258 32.9255 77.1318 34.6878 75.7907 36.2352C74.4496 37.7655 72.7646 38.9604 70.7358 39.8201C68.707 40.6798 66.489 41.101 64.0819 41.0838ZM57.5828 20.8643C57.1707 21.5828 56.8852 22.3565 56.7264 23.1854H71.3702C71.2639 22.1382 70.9406 21.184 70.4005 20.3227C69.7816 19.3083 68.9391 18.526 67.8731 17.9758C66.8071 17.4084 65.6035 17.1247 64.2624 17.1247C62.8354 17.1247 61.5373 17.4514 60.3681 18.1047C59.199 18.7581 58.2705 19.6779 57.5828 20.8643Z" fill="#080808"/>
<path d="M116.617 11.9924C116.617 9.68852 117.141 7.6425 118.19 5.85438C119.239 4.04906 120.709 2.64779 122.6 1.65057C124.508 0.636158 126.735 0.111758 129.28 0.0773706V6.34439C128.093 6.36158 127.079 6.61089 126.236 7.09231C125.411 7.55653 124.775 8.23567 124.328 9.12973C123.916 9.95282 123.694 10.9071 123.662 11.9924H129.125V17.95H123.657V40.4133H116.617V17.95H112.077V11.9924H116.617Z" fill="#080808"/>
<path fill-rule="evenodd" clip-rule="evenodd" d="M157.004 41.0322C154.132 41.0322 151.562 40.4047 149.292 39.1495C147.04 37.8772 145.269 36.1235 143.98 33.8883C142.707 31.636 142.071 29.0828 142.071 26.2286C142.071 23.3573 142.707 20.7955 143.98 18.5432C145.269 16.2736 147.04 14.5113 149.292 13.2562C151.562 12.001 154.132 11.3735 157.004 11.3735C159.892 11.3735 162.471 12.001 164.741 13.2562C167.027 14.5113 168.807 16.265 170.079 18.5174C171.352 20.7697 171.996 23.3401 172.014 26.2286C171.996 29.0828 171.352 31.636 170.079 33.8883C168.824 36.1235 167.053 37.8772 164.767 39.1495C162.48 40.4047 159.892 41.0322 157.004 41.0322ZM157.004 34.5589C158.517 34.5589 159.858 34.215 161.027 33.5273C162.196 32.8223 163.099 31.8423 163.735 30.5872C164.371 29.3149 164.689 27.862 164.689 26.2286C164.689 24.5781 164.371 23.1166 163.735 21.8443C163.099 20.572 162.196 19.592 161.027 18.9042C159.858 18.1993 158.517 17.8468 157.004 17.8468C155.508 17.8468 154.175 18.1993 153.006 18.9042C151.854 19.592 150.96 20.572 150.324 21.8443C149.688 23.1166 149.378 24.5781 149.396 26.2286C149.396 27.862 149.714 29.3149 150.35 30.5872C151.003 31.8423 151.897 32.8223 153.032 33.5273C154.184 34.215 155.508 34.5589 157.004 34.5589Z" fill="#080808"/>
<path d="M179.622 11.9924H171.781L180.266 40.4133H187.127L192.706 22.2609L198.732 40.4133H205.489L214 11.9924H206.908L202.082 29.6827L196.746 11.9924H189.886L184.577 30.0723L179.622 11.9924Z" fill="#080808"/>
</svg>
