<svg width="72" height="7" viewBox="0 0 72 7" fill="none" xmlns="http://www.w3.org/2000/svg">
<g clip-path="url(#clip0_101_1047)">
<g clip-path="url(#clip1_101_1047)">
<path d="M13.8947 6.14201C13.8947 6.09338 13.8947 6.02043 13.8947 5.97183C13.8672 5.97183 12.0835 6.06906 11.2054 6.06906C10.0528 6.06906 8.40634 6.04476 8.40634 6.04476L0.832441 5.99613C0.832441 5.97183 0.832441 5.87458 0.832441 5.85025L8.43378 5.82595C8.43378 5.82595 10.0803 5.85025 11.2328 5.85025C12.1109 5.85025 13.8672 5.85025 13.8947 5.85025C13.8947 5.77732 13.8672 5.65574 13.8672 5.55849C13.8398 5.55849 12.0835 5.68007 11.2328 5.68007C10.0803 5.68007 8.43378 5.60711 8.43378 5.60711H6.48541L3.90589 5.53419H0.859884C0.859884 5.50989 0.887327 5.41263 0.887327 5.3883C0.997091 5.41263 1.07942 5.43693 1.4636 5.43693C1.95755 5.43693 2.17708 5.33968 2.17708 5.33968C2.17708 5.33968 2.53382 5.43693 3.00032 5.43693C3.21986 5.43693 3.71383 5.24242 4.01566 5.31538C4.50963 5.43693 4.7017 5.24242 4.7017 5.24242C4.7017 5.24242 4.81147 5.364 5.03101 5.41263C5.19567 5.43693 5.41518 5.33968 5.41518 5.33968C5.41518 5.33968 5.68961 5.50988 6.48541 5.50988C7.44587 5.50988 7.72027 5.04794 7.72027 5.04794H7.74771C7.74771 5.04794 7.72027 5.16949 7.77516 5.26675C7.88493 5.46126 8.1868 5.48556 8.1868 5.48556C8.15935 4.95068 8.40634 4.58599 8.40634 4.58599H8.43378L8.37889 4.73185C8.26912 5.12087 8.46122 5.46126 8.46122 5.46126L8.54352 5.41263C8.54352 5.41263 8.46122 5.16949 8.54352 4.8291C8.62585 4.48874 8.76306 4.31853 8.76306 4.31853H8.81795C8.81795 4.31853 8.73562 4.58599 8.73562 4.78048C8.73562 4.95068 8.84539 5.364 9.20214 5.48556C9.47654 5.58281 9.69608 5.364 9.69608 5.364C9.69608 5.364 10.2998 5.50988 10.7938 5.50988C11.9737 5.50988 12.2482 5.33968 12.2482 5.33968C12.2482 5.33968 12.3305 5.46126 12.9342 5.46126C13.2909 5.46126 13.5653 5.43693 13.73 5.41263C13.7849 5.41263 13.8123 5.41263 13.8398 5.3883C13.8398 5.29105 13.8123 5.21812 13.7849 5.12087C13.4556 3.49189 12.3854 2.08175 10.9035 1.18218L10.8212 1.40099C12.2756 2.25194 13.3458 3.58915 13.6477 5.16949C13.483 5.21812 13.2361 5.29105 12.9342 5.29105C12.4677 5.29105 12.3579 5.16949 12.3579 5.16949C12.3579 5.16949 12.1933 5.26675 11.8914 5.26675C11.617 5.26675 11.4249 5.09654 11.4249 5.09654C11.4249 5.09654 11.1505 5.33968 10.6565 5.33968C10.0803 5.33968 9.77841 5.02361 9.66864 4.87773C9.55887 4.73185 9.50398 4.61029 9.50398 4.61029H9.47654C9.47654 4.65892 9.50398 4.73185 9.53143 4.8048C9.61375 4.99931 9.66864 5.04794 9.69608 5.09654C9.72352 5.12087 9.75097 5.19379 9.66864 5.21812C9.61375 5.24242 9.58631 5.19379 9.55887 5.16949C9.53143 5.12087 9.42166 4.99931 9.36677 4.8048C9.28447 4.58599 9.28447 4.44011 9.25703 4.31853H9.20214C9.1747 4.41579 9.1747 4.58599 9.1747 4.78048C9.20214 4.99931 9.25703 5.14517 9.28447 5.19379C9.28447 5.19379 9.31191 5.21812 9.31191 5.24242C9.31191 5.31538 9.25703 5.33968 9.20214 5.33968C9.14726 5.33968 9.09237 5.29105 9.06493 5.24242C8.81795 4.87773 9.11982 4.14835 9.20214 3.92954C9.33933 3.61348 9.36677 3.29739 9.36677 3.29739C9.36677 3.29739 9.53143 3.05428 9.61375 2.88407C9.72352 2.66526 9.80585 2.47076 9.88818 2.39782C9.99795 2.30057 10.19 2.05744 10.3821 1.74137C10.4096 1.69275 10.5742 1.35237 10.6017 1.27943C10.6291 1.2308 10.6565 1.15786 10.684 1.10924C10.7663 0.817482 10.8486 0.477102 10.8486 0.428478C10.8486 0.355539 10.7114 0.306912 10.7114 0.306912C10.7114 0.306912 10.5742 0.258287 10.4919 0.258287C10.437 0.258287 10.3821 0.306912 10.3272 0.331226C10.2449 0.355539 10.2175 0.331226 10.2175 0.331226C10.2175 0.331226 10.1077 0.282599 10.0528 0.306912C9.99795 0.306912 9.94307 0.37985 9.88818 0.37985C9.80585 0.404164 9.77841 0.404164 9.77841 0.404164C9.77841 0.404164 9.69608 0.37985 9.6412 0.37985C9.58631 0.404164 9.53143 0.428478 9.42166 0.501416C8.65329 0.258287 7.85748 0.136722 7.03424 0.136722C3.27474 0.136722 0.201286 2.81114 0.146402 6.14201C0.146402 6.16631 0.146402 6.31219 0.146402 6.31219H13.8947C13.8947 6.31219 13.8947 6.16631 13.8947 6.14201ZM5.14078 4.92636C5.11334 4.92636 5.14078 4.90206 5.11334 4.90206C5.30544 4.36716 5.74449 3.27309 6.45797 2.44645C6.5403 2.47076 6.59518 2.51938 6.67751 2.5437C6.1561 3.05428 5.47006 4.05109 5.14078 4.92636ZM5.55239 5.09654C5.68961 4.61029 6.04636 3.58915 6.81472 2.61664C6.89705 2.66526 6.95191 2.68958 7.03424 2.73821C6.51286 3.34601 5.8817 4.31853 5.60728 5.12087C5.57984 5.12087 5.57984 5.09654 5.55239 5.09654ZM6.10125 5.21812C6.0738 5.21812 6.10124 5.21812 6.0738 5.21812C6.18354 4.8291 6.48541 3.80796 7.19889 2.81114C7.28122 2.85977 7.3361 2.88407 7.39099 2.93269C6.89705 3.58915 6.3482 4.48874 6.10125 5.21812ZM6.62263 5.21812C6.59518 5.21812 6.59518 5.21812 6.59518 5.21812C6.70495 4.85343 6.95191 3.95384 7.55565 3.05428C7.63797 3.1029 7.72027 3.15153 7.74771 3.20016C7.30866 3.78366 6.84217 4.56167 6.62263 5.21812ZM8.43378 3.58915C8.29657 3.58915 8.10447 3.54052 8.04958 3.44327C8.07703 3.61348 8.29657 3.75933 8.48867 3.75933C8.43378 3.75933 8.40634 3.78366 8.35145 3.78366C8.10447 3.78366 7.88493 3.58915 7.88493 3.37034C7.88493 3.34601 7.88493 3.29739 7.88493 3.27309C8.07703 3.41897 8.48867 3.61348 8.73562 3.32171V3.34601C8.70818 3.46759 8.57096 3.58915 8.43378 3.58915ZM9.20214 2.64095C9.20214 2.71389 9.14726 2.73821 9.09237 2.76251C9.06493 2.78684 8.9826 2.81114 8.9826 2.83544H8.95516C8.95516 2.83544 8.92772 2.81114 8.90028 2.81114C8.90028 2.78684 8.90028 2.78684 8.90028 2.78684V2.76251V2.71389C8.90028 2.71389 8.87283 2.66526 8.90028 2.61664C8.90028 2.5437 8.9826 2.49507 8.9826 2.49507H9.01005C9.01005 2.49507 8.9826 2.5437 8.95516 2.59233C8.95516 2.61664 8.92772 2.68958 8.95516 2.73821V2.78684L8.9826 2.81114L9.01005 2.78684C9.06493 2.76251 9.06493 2.73821 9.06493 2.73821C9.06493 2.73821 9.01005 2.68958 9.03749 2.64095C9.06493 2.59233 9.14726 2.59233 9.14726 2.59233C9.1747 2.51938 9.14726 2.47076 9.14726 2.47076L9.20214 2.49507C9.1747 2.47076 9.20214 2.5437 9.20214 2.64095ZM9.55887 0.574354C9.6412 0.55004 9.66864 0.501416 9.75097 0.477102C9.83329 0.452788 9.88818 0.477102 9.94306 0.477102C9.99795 0.477102 10.0803 0.404164 10.1351 0.404164C10.19 0.404164 10.2175 0.428478 10.2723 0.428478C10.2998 0.477102 10.4644 0.37985 10.4919 0.37985C10.5193 0.37985 10.6291 0.37985 10.6017 0.477102C10.5742 0.55004 10.5193 0.768858 10.4096 1.06061C10.3821 1.13355 10.3272 1.2308 10.2723 1.32805C10.2175 1.42531 10.1626 1.54687 10.0803 1.64412C9.77841 2.08175 9.47654 1.9845 8.90028 2.22763C8.43378 2.42214 8.24168 2.5437 8.1868 2.61664C8.13191 2.56801 8.10447 2.56801 8.04958 2.5437C8.13191 2.47076 8.32401 2.34919 8.70818 2.179C9.11982 1.9845 9.80585 1.74137 9.94306 1.52256C9.94306 1.49824 9.94306 1.49824 9.94306 1.47393C9.77841 1.57118 9.6412 1.61981 9.58631 1.66843C8.92772 1.96019 8.68073 2.03313 8.37889 2.179C8.24168 2.25194 8.02214 2.34919 7.88493 2.44645C7.85748 2.42214 7.8026 2.39782 7.77516 2.37351C7.91237 2.27626 8.10447 2.179 8.29657 2.08175C8.59841 1.96019 8.84539 1.83862 9.55887 1.47393C9.61375 1.44962 9.97051 1.25512 10.2449 1.06061C10.2449 1.0363 10.2449 1.01199 10.2723 0.987675C10.0254 1.10924 9.22959 1.49824 9.06493 1.57118C8.40634 1.86294 8.43378 1.83862 8.13191 1.9845C7.93981 2.08175 7.74771 2.179 7.61053 2.27626C7.58309 2.25194 7.5282 2.22763 7.50076 2.20332C7.66542 2.10607 7.8026 2.00881 8.02214 1.91156C8.32401 1.76569 8.35145 1.74137 9.03749 1.44962C9.36677 1.30374 9.97051 0.939048 10.2998 0.768858C10.2998 0.744544 10.2998 0.744544 10.2998 0.720233C9.97051 0.890423 9.01005 1.32805 8.87283 1.40099C8.21424 1.66843 8.13191 1.69275 7.83004 1.83862C7.66542 1.91156 7.50076 2.00881 7.36355 2.08175C7.3361 2.05744 7.30866 2.03313 7.28122 2.00881C7.39099 1.93588 7.58309 1.81431 7.83004 1.69275C8.13191 1.54687 8.1868 1.52256 8.84539 1.2308C8.92772 1.20649 9.25703 1.0363 9.55887 0.866109C9.6412 0.817482 9.75097 0.768858 9.83329 0.720233C9.91562 0.671606 9.97051 0.622981 10.0254 0.598668L9.99795 0.574354C9.86074 0.622981 9.66864 0.72023 9.61375 0.744544C9.25703 0.914734 8.81795 1.10924 8.68073 1.15786C8.02214 1.44962 7.93981 1.47393 7.63797 1.61981C7.47332 1.69275 7.28122 1.79 7.17145 1.88725C7.14401 1.86294 7.11656 1.83862 7.08912 1.81431C7.22633 1.71706 7.41843 1.5955 7.63797 1.49824C7.93981 1.35237 7.9947 1.32805 8.65329 1.0363C8.76306 0.987675 8.87283 0.939048 8.95516 0.890423C8.9826 0.890423 9.28447 0.744544 9.55887 0.574354ZM7.30866 0.428478C7.93981 0.428478 8.57096 0.501416 9.14726 0.671606C9.03749 0.744544 8.87283 0.817482 8.65329 0.914734C7.88493 1.25512 7.8026 1.27943 7.47332 1.42531C7.25378 1.52256 7.08912 1.61981 6.95191 1.71706C6.95191 1.71706 6.81472 1.54687 6.7324 1.49824C6.65007 1.44962 6.45797 1.40099 6.40308 1.37668C6.29331 1.32805 6.26587 1.27943 6.10125 1.2308C5.96403 1.18218 5.85426 1.20649 5.77193 1.20649C5.68961 1.18218 5.60728 1.15786 5.47006 1.15786C5.38774 1.15786 5.278 1.20649 5.19567 1.20649C5.0859 1.20649 5.00357 1.18218 4.92124 1.18218C4.83891 1.20649 4.72914 1.27943 4.61937 1.27943C4.53705 1.30374 4.4273 1.27943 4.37242 1.27943C4.31753 1.30374 4.18032 1.40099 4.09799 1.42531C4.04311 1.44962 3.87845 1.44962 3.90589 1.57118C3.90589 1.66843 4.15288 1.69275 4.15288 1.69275C4.15288 1.69275 5.22311 1.81431 6.26587 2.30057C6.12866 2.47076 5.96403 2.64095 5.85426 2.83544C5.77193 2.81114 5.66216 2.78684 5.60728 2.78684C5.49751 2.78684 5.38774 2.83544 5.30544 2.81114C5.14078 2.81114 5.14078 2.78684 4.94868 2.81114C4.81147 2.83544 4.81147 2.85977 4.7017 2.88407C4.61937 2.90839 4.53705 2.88407 4.39986 2.90839C4.34498 2.93269 4.23521 3.02995 4.15288 3.05428C4.09799 3.07858 3.98822 3.07858 3.90589 3.1272C3.85101 3.17583 3.85101 3.22446 3.71383 3.27309C3.6315 3.32171 3.57661 3.29739 3.49428 3.37034C3.4394 3.46759 3.4394 3.54052 3.30219 3.63778C3.13753 3.75933 3.13753 3.85659 3.16497 3.88091C3.21986 3.97817 3.46684 3.88091 3.46684 3.88091C3.46684 3.88091 4.34498 3.61348 5.38774 3.56485C5.11334 4.05109 4.8938 4.51304 4.75659 4.8291C4.72914 4.90206 4.7017 4.97498 4.67426 5.02361C4.64682 5.02361 4.64682 5.02361 4.64682 5.02361C4.59193 4.97498 4.59193 4.90206 4.61937 4.73185C4.64682 4.56167 4.81147 4.22128 4.86636 4.14835H4.81147C4.75659 4.22128 4.59193 4.48874 4.56449 4.53737C4.50963 4.63462 4.48219 4.65892 4.37242 4.87773C4.34498 4.92636 4.29009 5.02361 4.20776 5.02361C4.15288 5.02361 4.09799 4.99931 4.09799 4.95068C4.09799 4.92636 4.12544 4.87773 4.15288 4.87773C4.29009 4.68322 4.39986 4.48874 4.4273 4.39149H4.37242C4.37242 4.39149 3.98822 5.16949 3.16497 5.16949C2.89056 5.16949 2.5887 5.04794 2.5887 5.04794C2.5887 5.04794 2.20452 5.19379 1.68313 5.19379C1.27151 5.19379 1.02453 5.12087 0.914766 5.09654C1.49104 2.47076 4.04311 0.428478 7.30866 0.428478Z" fill="white" fill-opacity="0.8"/>
<path d="M26.354 6.1663L26.2991 6.142C25.9698 5.99612 25.86 5.5828 25.6954 5.21811L24.0214 1.27942H22.4298V1.40099L22.5121 1.4253C22.5121 1.4253 22.5945 1.44961 22.6219 1.47393C22.7042 1.52255 22.7865 1.6198 22.6768 1.86293C22.6768 1.9845 22.6219 2.08175 22.6219 2.08175L21.3047 5.21811C21.1675 5.5585 21.0577 5.99612 20.7284 6.142L20.6186 6.19063V6.31218H22.4024V6.19063L22.2651 6.142C22.1005 6.09338 22.073 5.94749 22.2377 5.53418L22.4298 4.97498H24.3233C24.3781 5.09656 24.433 5.26674 24.5154 5.50988C24.5977 5.75298 24.7349 6.06908 24.5428 6.1663L24.433 6.21493V6.33651H26.354V6.1663ZM24.0489 4.14834H22.7865L23.4177 2.59232L24.0489 4.14834Z" fill="white" fill-opacity="0.8"/>
<path d="M37.9342 1.27942V1.40099L38.0714 1.44961C38.291 1.52255 38.2635 1.9845 38.2635 2.27625V5.31537C38.2635 5.5585 38.2635 6.06908 38.0714 6.142L37.9342 6.19063V6.31219H39.7451V6.19063L39.6079 6.142C39.3884 6.06908 39.4158 5.5585 39.4158 5.31537V2.27625C39.4158 1.86293 39.4707 1.49824 39.6079 1.44961L39.7451 1.40099V1.27942H37.9342Z" fill="white" fill-opacity="0.8"/>
<path d="M31.1272 1.27942V1.40099L31.2644 1.44961C31.4839 1.52255 31.4565 1.9845 31.4565 2.27625V5.31537C31.4565 5.5585 31.4565 6.06908 31.2644 6.142L31.1272 6.19063V6.31219H32.9384V6.19063L32.8012 6.142C32.5816 6.06908 32.6091 5.5585 32.6091 5.31537V2.27625C32.6091 1.86293 32.664 1.49824 32.8012 1.44961L32.9384 1.40099V1.27942H31.1272Z" fill="white" fill-opacity="0.8"/>
<path d="M20.9471 0.841461C20.5354 0.476768 19.9043 0.282264 19.2182 0.282264H16.8857V0.40383L16.9955 0.428143C17.2973 0.549706 17.2699 1.20616 17.2699 1.69241V4.87739V4.99897C17.2699 5.36366 17.2699 6.02012 16.9955 6.11737L16.8857 6.166V6.28755H19.0262V6.166L18.9438 6.11737C18.5596 5.89853 18.5596 5.41229 18.5596 4.90172V3.83194L18.7792 3.9049C18.7792 3.9049 19.1359 4.02645 19.4652 4.02645C20.4531 4.02645 21.5233 3.41863 21.5233 2.10573C21.5233 1.61947 21.3312 1.18184 20.9471 0.841461ZM18.8615 3.56451L18.6694 3.58881H18.5596V1.32772C18.6968 1.30341 18.8615 1.30341 19.081 1.30341C19.5201 1.30341 19.8768 1.40066 20.0689 1.59516C20.261 1.76535 20.3433 1.98417 20.3433 2.30024C20.3433 3.05393 19.575 3.51588 18.8615 3.56451Z" fill="white" fill-opacity="0.8"/>
<path d="M50.1178 0.282432H49.1573H46.413V0.428309L46.5777 0.476936C46.8246 0.574188 46.8247 1.13338 46.8247 1.44945V5.0964C46.8247 5.38813 46.8246 5.99596 46.5777 6.09321L46.413 6.14184V6.28772H48.4712V6.14184L48.3066 6.09321C48.0596 5.99596 48.0596 5.41246 48.0596 5.0964V3.90504H49.267C49.267 3.90504 49.7885 3.85641 49.8708 4.05092L49.8982 4.12388L50.0354 4.14818L50.1178 2.54353H49.9257L49.8982 2.64078C49.8433 2.76234 49.3768 2.81097 49.2396 2.78667H48.0321C48.0321 2.25178 48.0321 1.59533 48.0321 1.30357H49.514C49.8708 1.30357 50.0629 1.37651 50.1178 1.5467L50.1449 1.64395H50.3096L50.6938 0.209493C50.7487 0.258119 50.2547 0.282432 50.1178 0.282432Z" fill="white" fill-opacity="0.8"/>
<path d="M30.524 4.95035L30.4965 4.97468C30.4416 5.02331 30.3868 5.04761 30.3868 5.04761C30.0574 5.24212 29.5086 5.46093 28.9599 5.46093C28.5208 5.46093 28.1641 5.33937 27.8622 5.09623C27.5055 4.78017 27.3134 4.2696 27.3134 3.6861C27.3134 2.76221 27.9171 2.13006 28.7952 2.13006C29.2069 2.13006 29.6184 2.25163 30.03 2.49475L30.1398 2.56769L30.3593 2.68926V2.47044V1.47361V1.37636L30.1947 1.35205C29.6458 1.23048 29.2069 1.15754 28.8227 1.15754C28.0543 1.15754 27.3957 1.40067 26.9018 1.83831C26.3804 2.30025 26.0785 3.00532 26.0785 3.78332C26.0785 4.58566 26.3529 5.24212 26.8743 5.70406C27.3957 6.16601 28.1641 6.40914 29.0422 6.40914C29.4813 6.40914 29.8928 6.33619 30.2221 6.16601H30.2495L30.3044 6.14168L30.3319 6.09305L30.7161 4.92605H30.524V4.95035Z" fill="white" fill-opacity="0.8"/>
<path d="M44.5473 4.95029L44.3826 5.04755C44.0533 5.24205 43.5045 5.46086 42.9556 5.46086C42.5166 5.46086 42.1598 5.33931 41.8579 5.09617C41.5012 4.78011 41.3091 4.26954 41.3091 3.68604C41.3091 2.76215 41.9128 2.13 42.791 2.13C43.2026 2.13 43.6143 2.25156 44.0259 2.49469L44.3552 2.6892V1.47355V1.3763L44.218 1.35199C43.6691 1.23042 43.2301 1.15748 42.8459 1.15748C42.0775 1.15748 41.4188 1.40061 40.9249 1.83825C40.4035 2.30019 40.1016 3.00525 40.1016 3.78326C40.1016 4.5856 40.376 5.24205 40.8974 5.704C41.4188 6.16595 42.1872 6.40908 43.0654 6.40908C43.5045 6.40908 43.9161 6.33613 44.2454 6.16595L44.3278 6.14162L44.7394 4.92599H44.5473V4.95029Z" fill="white" fill-opacity="0.8"/>
<path d="M36.9728 1.27888H35.4637H33.6525V1.40044L33.7897 1.44907C34.0093 1.52201 33.9818 1.98395 33.9818 2.27571V5.31481C33.9818 5.55794 33.9818 6.06852 33.7897 6.14147L33.6525 6.19007V6.31165H35.4637V6.19007L35.3265 6.14147C35.107 6.06852 35.1344 5.55794 35.1344 5.31481V4.31799H36.1224C36.1224 4.31799 36.5611 4.29369 36.616 4.43954L36.6435 4.5125L36.7532 4.5368L36.8356 3.19959H36.6984L36.6709 3.27254C36.6435 3.3698 36.2321 3.41843 36.1224 3.3941H35.107C35.107 2.95648 35.107 2.39727 35.107 2.15414H36.4514C36.7532 2.15414 36.9179 2.22708 36.9728 2.34865L37.0002 2.42158H37.1374L37.4667 1.23025C37.5216 1.23025 37.0825 1.27888 36.9728 1.27888Z" fill="white" fill-opacity="0.8"/>
<path d="M60.2434 1.27912V1.40068L60.3532 1.44931C60.6001 1.59519 60.6276 1.81401 60.6276 2.22732V4.53704C59.8592 3.56453 58.1581 1.25481 58.1581 1.25481H56.8408V1.37637L56.9506 1.425C57.1976 1.57088 57.225 1.81401 57.225 2.22732V5.24213C57.225 5.65544 57.225 5.97151 56.9506 6.11739L56.8682 6.16602V6.28757H58.5422V6.16602L58.4325 6.11739C58.1855 6.06876 58.1855 5.65544 58.1855 5.24213V3.05395L59.8318 5.14487C60.1336 5.53389 60.6276 6.09306 61.149 6.23894C61.5606 6.36053 61.643 6.3362 61.643 6.3362V2.25164C61.643 1.83832 61.643 1.59519 61.9174 1.44931L62.0272 1.40068V1.27912H60.2434Z" fill="white" fill-opacity="0.8"/>
<path d="M66.9938 2.00854C66.445 1.52228 65.6217 1.25484 64.6066 1.25484H62.5484V1.3764L62.6582 1.40071L62.7131 1.42503C62.96 1.49797 62.9052 2.00854 62.9052 2.27598V5.31508C62.9052 5.67978 62.9052 5.99587 62.6033 6.16605L62.521 6.21468V6.31193H64.5517C66.4175 6.31193 67.7348 5.26646 67.7348 3.75907C67.7348 3.05398 67.4878 2.44617 66.9938 2.00854ZM66.0333 5.04765C65.6491 5.36371 65.128 5.55822 64.4694 5.55822C64.3322 5.55822 64.2499 5.53392 64.0852 5.50959V2.10579C64.3047 2.05716 64.4145 2.03285 64.6066 2.03285C65.2378 2.03285 65.704 2.17873 66.0333 2.47048C66.3626 2.76225 66.5273 3.24849 66.5273 3.83199C66.5273 4.31827 66.3352 4.75588 66.0333 5.04765Z" fill="white" fill-opacity="0.8"/>
<path d="M55.8242 5.38829V2.22763C55.8242 1.86293 55.8242 1.52255 56.0986 1.44961L56.2084 1.4253L56.1261 1.27942H54.26V1.40099L54.3697 1.4253C54.6442 1.52255 54.6167 1.91156 54.6167 2.179V4.58598C54.6167 4.82909 54.6167 4.95068 54.4795 5.12086C54.26 5.38829 53.8483 5.5585 53.4093 5.5585C53.0528 5.5585 52.8058 5.48555 52.6137 5.31537C52.3667 5.12086 52.257 4.75617 52.257 4.29422V2.15469C52.257 1.86293 52.257 1.47393 52.5039 1.40099L52.6137 1.37667V1.27942H50.6927V1.40099L50.8025 1.4253C51.0495 1.49824 51.0769 1.96019 51.0495 2.32488V4.39148C51.0495 4.90205 51.0495 5.41262 51.516 5.87457C51.9002 6.23926 52.4765 6.43377 53.1351 6.43377C53.6014 6.43377 54.1776 6.21493 54.5893 5.92319V6.31218H56.1535V6.19063L56.0437 6.1663C55.8242 6.06908 55.7968 5.75298 55.8242 5.38829Z" fill="white" fill-opacity="0.8"/>
<path d="M71.8519 4.78039C71.8519 5.16938 71.6598 5.55839 71.3031 5.85016C70.8915 6.21485 70.3152 6.40933 69.684 6.40933C69.19 6.40933 68.7235 6.3364 68.2844 6.19052H68.257L68.2021 6.16622V6.11759V6.09327L67.9825 5.1937L67.9551 5.04782L67.9277 4.92627H68.0649L68.257 5.12075C68.6686 5.46114 69.2449 5.60702 69.7663 5.60702C70.1231 5.60702 70.6445 5.38821 70.6445 5.02349C70.6445 4.61018 70.2054 4.41569 69.6291 4.17256C68.943 3.88079 68.1198 3.5161 68.1198 2.59222C68.1198 1.54676 69.2175 1.18207 70.1505 1.18207C70.5621 1.18207 70.9463 1.23069 71.3031 1.35226H71.3305L71.4129 1.37657V1.44951V1.47382V2.10596V2.32478V2.47065L71.2208 2.34909L71.0287 2.25183C70.864 2.15459 70.4524 2.00871 70.0956 2.00871C69.9584 2.00871 69.6565 2.03302 69.4644 2.20321C69.3821 2.27615 69.3272 2.3734 69.3272 2.51928C69.3272 2.88398 69.8212 3.10278 70.3426 3.32159C71.0012 3.61336 71.8519 3.97805 71.8519 4.78039Z" fill="white" fill-opacity="0.8"/>
</g>
</g>
<defs>
<clipPath id="clip0_101_1047">
<rect width="71.5" height="6.5" fill="white" transform="scale(1.00699)"/>
</clipPath>
<clipPath id="clip1_101_1047">
<rect width="71.5" height="6.5" fill="white" transform="scale(1.00699)"/>
</clipPath>
</defs>
</svg>
