<svg width="36" height="54" viewBox="0 0 36 54" fill="none" xmlns="http://www.w3.org/2000/svg">
<g clip-path="url(#clip0_229_156)">
<path d="M17.9999 27.0001C17.9999 22.0802 21.9883 18.0917 26.9083 18.0917C31.8282 18.0917 35.8167 22.0802 35.8167 27.0001C35.8167 31.9201 31.8282 35.9085 26.9083 35.9085C21.9883 35.9085 17.9999 31.9201 17.9999 27.0001Z" fill="#1ABCFE"/>
<path d="M0.183446 44.8166C0.183446 39.8968 4.17185 35.9083 9.09181 35.9083H18.0002V44.8166C18.0002 49.7366 14.0118 53.725 9.09181 53.725C4.17185 53.725 0.183446 49.7366 0.183446 44.8166Z" fill="#0ACF83"/>
<path d="M17.9999 0.275262V18.0919H26.9083C31.8283 18.0919 35.8167 14.1036 35.8167 9.18363C35.8167 4.26368 31.8283 0.275262 26.9083 0.275262H17.9999Z" fill="#FF7262"/>
<path d="M0.183446 9.18363C0.183446 14.1036 4.17185 18.092 9.09181 18.092H18.0002V0.275262H9.09181C4.17185 0.275262 0.183446 4.26367 0.183446 9.18363Z" fill="#F24E1E"/>
<path d="M0.183446 27.0001C0.183446 31.9201 4.17185 35.9085 9.09181 35.9085H18.0002V18.0917H9.09181C4.17185 18.0917 0.183446 22.0802 0.183446 27.0001Z" fill="#A259FF"/>
</g>
<defs>
<clipPath id="clip0_229_156">
<rect width="35.4061" height="53.1092" fill="white" transform="scale(1.01677)"/>
</clipPath>
</defs>
</svg>
