<svg width="34" height="11" viewBox="0 0 34 11" fill="none" xmlns="http://www.w3.org/2000/svg">
<g clip-path="url(#clip0_101_1038)">
<path d="M8.43702 10.657L27.3418 8.93118H6.79846L8.43702 10.657Z" fill="white" fill-opacity="0.8"/>
<path d="M31.7261 1.81183C31.3382 1.82137 30.9613 1.94872 30.6405 2.17856V1.94127H29.3706V7.80893H30.6405V4.37894C30.6316 4.22866 30.652 4.07805 30.7004 3.9364C30.7489 3.79474 30.8244 3.66504 30.9222 3.55529C31.0201 3.44555 31.1383 3.35808 31.2695 3.29829C31.4007 3.23851 31.5421 3.20766 31.6851 3.20766C31.8281 3.20766 31.9695 3.23851 32.1007 3.29829C32.2319 3.35808 32.3501 3.44555 32.448 3.55529C32.5458 3.66504 32.6213 3.79474 32.6698 3.9364C32.7182 4.07805 32.7386 4.22866 32.7297 4.37894V7.8305H33.9996V4.37894C33.9996 2.95516 33.0779 1.81183 31.7261 1.81183Z" fill="white" fill-opacity="0.8"/>
<path d="M26.4406 1.79102C24.9659 1.79102 23.9214 3.15007 23.9214 4.87586C23.9214 6.68793 25.2322 7.9607 26.5635 7.9607C27.2394 7.9607 28.0792 7.7234 28.7961 6.64478L27.6696 5.95447C26.8093 7.29195 25.3551 6.62321 25.1912 5.26416H28.837C29.1647 3.19322 27.8744 1.79102 26.4406 1.79102ZM25.2732 4.12083C25.5394 2.76177 27.3009 2.67548 27.5467 4.12083H25.2732Z" fill="white" fill-opacity="0.8"/>
<path d="M21.2195 5.86786C21.2082 6.13676 21.2484 6.4053 21.3378 6.65745C21.4272 6.9096 21.5639 7.14021 21.7398 7.3355C21.9157 7.53079 22.1271 7.68677 22.3614 7.79413C22.5958 7.90149 22.8483 7.95803 23.1038 7.96037C23.5356 7.94444 23.9572 7.81861 24.3327 7.59364L23.5134 6.42874C23.3876 6.52327 23.2378 6.57588 23.0833 6.57975C22.9989 6.57723 22.9159 6.55642 22.8395 6.51862C22.7631 6.48082 22.6949 6.42684 22.6391 6.36004C22.5834 6.29324 22.5413 6.21507 22.5156 6.13038C22.4898 6.0457 22.4809 5.95634 22.4893 5.86786V3.3439H23.5749V1.9417H22.4893V0.474786H21.2195V1.9417H20.5436V3.3439H21.2195V5.86786Z" fill="white" fill-opacity="0.8"/>
<path d="M17.7563 7.96034C18.1441 7.9508 18.5211 7.82345 18.8419 7.59361V7.80934H20.1117V1.94167H18.8419V5.39324C18.8508 5.54351 18.8304 5.69412 18.782 5.83578C18.7335 5.97743 18.658 6.10713 18.5601 6.21688C18.4623 6.32663 18.3441 6.41409 18.2129 6.47388C18.0817 6.53367 17.9402 6.56451 17.7973 6.56451C17.6543 6.56451 17.5129 6.53367 17.3817 6.47388C17.2505 6.41409 17.1323 6.32663 17.0344 6.21688C16.9365 6.10713 16.861 5.97743 16.8126 5.83578C16.7641 5.69412 16.7438 5.54351 16.7527 5.39324V1.94167H15.4828V5.39324C15.4828 6.81701 16.4045 7.96034 17.7563 7.96034Z" fill="white" fill-opacity="0.8"/>
<path d="M11.982 5.41468L13.8664 7.83078H15.6278L13.1085 4.70279L15.2796 1.94154H13.5182L11.982 3.99091V3.09731e-05H10.6917V7.83078H11.982V5.41468Z" fill="white" fill-opacity="0.8"/>
<path d="M8.70446 7.55082V7.80969H9.97434V1.94202H8.70446V2.20089C8.35839 1.93787 7.94326 1.79464 7.51651 1.79102C6.08278 1.79102 4.97675 3.17164 4.97675 4.87586C4.97675 6.58007 6.06229 7.9607 7.51651 7.9607C7.94378 7.96043 8.35986 7.81687 8.70446 7.55082ZM6.26711 4.89743C6.26711 3.96982 6.77916 3.23636 7.49603 3.23636C8.2129 3.23636 8.70446 3.96982 8.70446 4.89743C8.70446 5.82504 8.2129 6.5585 7.49603 6.5585C6.77916 6.5585 6.26711 5.82504 6.26711 4.89743Z" fill="white" fill-opacity="0.8"/>
<path d="M4.56673 2.99875C4.56618 2.32952 4.31353 1.68788 3.86424 1.21467C3.41495 0.741457 2.80574 0.475357 2.17034 0.474786H-0.000743354V7.80937H1.33058V5.54428H2.25227L3.87034 7.80937H5.52938L3.56311 5.06969C3.8769 4.83567 4.13212 4.525 4.30692 4.16431C4.48171 3.80363 4.57086 3.40368 4.56673 2.99875ZM2.19082 4.16365H1.33058V1.87699H2.19082C2.47873 1.87699 2.75484 1.99744 2.95842 2.21186C3.162 2.42628 3.27637 2.71709 3.27637 3.02032C3.27637 3.32355 3.162 3.61436 2.95842 3.82878C2.75484 4.04319 2.47873 4.16365 2.19082 4.16365Z" fill="white" fill-opacity="0.8"/>
</g>
<defs>
<clipPath id="clip0_101_1038">
<rect width="33.5" height="10.5" fill="white" transform="scale(1.01493)"/>
</clipPath>
</defs>
</svg>
