<svg width="40" height="13" viewBox="0 0 40 13" fill="none" xmlns="http://www.w3.org/2000/svg">
<g clip-path="url(#clip0_101_1063)">
<path d="M24.359 6.82159C24.359 6.82159 24.2788 6.51049 24.2788 6.27992V2.67252H25.646V9.62081L21.2688 5.79066C21.0346 5.58037 20.896 5.34557 20.896 5.34557C20.896 5.34557 20.9654 5.60447 20.9654 5.82849L20.9642 9.46399H19.5962V2.54297L23.9332 6.29619C24.1658 6.50436 24.359 6.82159 24.359 6.82159Z" fill="white" fill-opacity="0.8"/>
<path d="M36.7387 2.67383C38.9053 2.67383 39.4601 3.57668 39.4601 4.87432C39.4601 5.81479 38.8047 6.73624 37.4829 6.84529L37.3381 6.85269C37.3381 6.85269 37.4659 6.87657 37.5995 7.01247L39.9983 9.46445H38.1447L34.7959 5.87143H36.4633C37.9569 5.87143 38.0003 5.0398 38.0105 4.83015C38.0385 4.29038 37.8751 3.85882 36.7361 3.85882H34.8295V9.46445H33.4087V2.67383H36.7387Z" fill="white" fill-opacity="0.8"/>
<path d="M26.2622 6.16563C26.2622 3.32076 28.5156 2.57324 30.4098 2.57324C31.1682 2.57324 31.8398 2.6451 32.5466 2.80339L32.5486 4.24601C32.1422 4.11392 31.326 3.82396 30.41 3.82396C28.6142 3.82396 27.7422 4.56112 27.7422 6.16542C27.7422 7.47954 28.6822 8.31667 30.41 8.31667C31.326 8.31667 32.2432 8.08631 32.6874 7.91322L32.6848 9.31272C31.9788 9.47017 31.1684 9.56739 30.41 9.56739C28.3868 9.5676 26.2622 8.52843 26.2622 6.16563Z" fill="white" fill-opacity="0.8"/>
<path d="M10.8755 2.84766L12.2089 4.17467C12.1725 4.19179 12.1305 4.21293 12.0811 4.23913C12.0039 4.28161 11.9119 4.33846 11.8017 4.41919C11.5819 4.57876 11.2955 4.83364 10.9291 5.25146L8.3231 8.16565C7.8765 8.66442 7.4227 9.05963 7.0007 9.26865L5.6665 7.94121C5.7029 7.92324 5.7449 7.90338 5.7935 7.8759C5.8707 7.83427 5.9627 7.77657 6.0729 7.69711C6.2921 7.53607 6.5793 7.28267 6.9461 6.86421L9.5515 3.95488C9.9983 3.45674 10.4529 3.05667 10.8755 2.84766Z" fill="white" fill-opacity="0.8"/>
<path d="M5.71433 9.89244C6.30373 9.89244 6.84554 9.76902 7.21314 9.56761C7.38113 9.47504 7.62093 9.31569 7.82714 9.14577C8.03253 8.97648 8.32373 8.71273 8.56993 8.43608L11.1785 5.53013C11.8365 4.79783 12.2319 4.5717 12.4719 4.48272L13.8099 5.82199C13.5307 6.13753 10.2005 9.88546 10.2005 9.88546C9.97353 10.1446 9.73433 10.3946 9.57173 10.552C9.41553 10.7042 9.14833 10.931 9.01033 11.0377C8.22713 11.644 7.18093 12.1358 5.77213 12.1358C2.57993 12.1358 -0.00146484 9.39029 -0.00146484 6.22883C-0.00146484 2.30696 2.89833 0.0312265 5.53933 0.0312265C6.34893 0.00586548 6.99853 0.149789 7.51214 0.334079C7.98673 0.504632 8.34513 0.710902 8.60513 0.851233C8.29774 1.0594 8.00033 1.34324 7.51013 1.89653L6.97453 2.50414C6.85134 2.45405 6.30493 2.25264 5.60353 2.27525C3.90893 2.32809 2.05554 3.77959 2.12234 6.16078C2.18454 8.38726 3.92133 9.89244 5.71433 9.89244Z" fill="white" fill-opacity="0.8"/>
<path d="M10.6467 2.5692C10.4781 2.6624 10.2389 2.82133 10.0315 2.99125C9.82672 3.16054 9.53572 3.42429 9.28872 3.7003L6.68072 6.60689C6.02272 7.33919 5.62712 7.56448 5.38732 7.65367L4.04932 6.31566C4.32932 5.99928 7.65892 2.25198 7.65892 2.25198C7.88652 1.99287 8.12512 1.74286 8.28772 1.58477C8.44392 1.43261 8.71112 1.20668 8.85032 1.09911C9.63212 0.492769 10.6797 0.000976562 12.0885 0.000976562C15.2805 0.000976562 17.8607 2.74673 17.8607 5.90735C17.8607 9.83049 14.9615 12.1049 12.3199 12.1049C11.5109 12.1309 10.8607 11.987 10.3479 11.8012C9.87212 11.6313 9.51232 11.4238 9.25292 11.2841C9.57772 11.0525 9.85572 10.7984 10.3497 10.2407L10.8845 9.63309C11.0077 9.68234 11.5543 9.88396 12.2563 9.86198C13.9503 9.80851 15.8043 8.35553 15.7375 5.97498C15.6747 3.74955 13.9367 2.24374 12.1447 2.24374C11.5543 2.24374 11.0149 2.36779 10.6467 2.5692Z" fill="white" fill-opacity="0.8"/>
</g>
<defs>
<clipPath id="clip0_101_1063">
<rect width="40" height="12.1348" fill="white"/>
</clipPath>
</defs>
</svg>
