<svg width="44" height="9" viewBox="0 0 44 9" fill="none" xmlns="http://www.w3.org/2000/svg">
<g clip-path="url(#clip0_101_1029)">
<path d="M29.2597 7.42616C29.8429 7.43893 30.4073 7.2151 30.829 6.80378L31.6077 7.6593C31.0932 8.19855 30.3821 8.59793 29.2736 8.59793C27.3746 8.59793 26.1489 7.31263 26.1489 5.57323C26.1413 5.18338 26.209 4.79583 26.3483 4.43274C26.4876 4.06965 26.6957 3.73815 26.9606 3.45721C27.2256 3.17627 27.5422 2.95141 27.8924 2.79549C28.2426 2.63956 28.6195 2.55564 29.0015 2.54852H29.1067C30.9919 2.54852 32.0606 4.01222 31.9672 6.04355H27.5057C27.6646 6.8869 28.2446 7.42413 29.2597 7.42413V7.42616ZM30.6184 5.06843C30.4993 4.28185 30.0384 3.70205 29.1147 3.70205C28.7267 3.67891 28.3445 3.80721 28.0458 4.06093C27.747 4.31466 27.5539 4.67482 27.5057 5.06843H30.6184Z" fill="white" fill-opacity="0.8"/>
<path d="M-0.00037042 7.36266L3.43024 3.80681H0.0810743V2.68978H5.0194V3.82911L1.58879 7.38496H5.06509V8.49997H-0.00037042V7.36266Z" fill="white" fill-opacity="0.8"/>
<path d="M8.91722 7.42616C9.50043 7.43893 10.0648 7.2151 10.4865 6.80378L11.2652 7.6593C10.7507 8.19855 10.0396 8.59793 8.93112 8.59793C7.03207 8.59793 5.80643 7.31263 5.80643 5.57323C5.79879 5.18372 5.86641 4.79649 6.00545 4.43366C6.14448 4.07083 6.35219 3.73951 6.61672 3.45862C6.88125 3.17774 7.19741 2.95279 7.54715 2.79663C7.89688 2.64048 8.27334 2.55617 8.655 2.54852H8.76029C10.6454 2.54852 11.7141 4.01222 11.6208 6.04355H7.16318C7.32209 6.8869 7.90214 7.42413 8.91722 7.42413V7.42616ZM10.276 5.06843C10.1568 4.28185 9.69591 3.70205 8.7722 3.70205C8.38418 3.67891 8.00205 3.80721 7.70327 4.06093C7.40449 4.31466 7.21141 4.67482 7.16318 5.06843H10.276Z" fill="white" fill-opacity="0.8"/>
<path d="M19.0245 5.57911C19.0245 3.72009 20.3852 2.55846 21.883 2.55846C22.2424 2.55372 22.5984 2.6293 22.9262 2.77989C23.2539 2.93048 23.5453 3.15244 23.7801 3.43019V3.08684e-05H24.9918V8.4842H23.7801V7.67329C23.5498 7.96269 23.2586 8.19549 22.9281 8.35446C22.5977 8.51344 22.2364 8.5945 21.8711 8.59165C21.4941 8.58873 21.1214 8.51007 20.7743 8.36015C20.4271 8.21023 20.1123 7.99199 19.8478 7.7179C19.5833 7.4438 19.3742 7.11922 19.2326 6.76268C19.091 6.40614 19.0196 6.02463 19.0225 5.63993C19.0225 5.6156 19.0225 5.5933 19.0225 5.571L19.0245 5.57911ZM23.8476 5.55884C23.84 5.06679 23.6422 4.59775 23.2972 4.25391C22.9522 3.91007 22.4881 3.71931 22.0059 3.72319C21.5237 3.72707 21.0626 3.92527 20.723 4.27462C20.3833 4.62396 20.1928 5.09612 20.1928 5.58823C20.1928 6.08034 20.3833 6.55251 20.723 6.90185C21.0626 7.25119 21.5237 7.44939 22.0059 7.45327C22.4881 7.45715 22.9522 7.26639 23.2972 6.92255C23.6422 6.57872 23.84 6.10968 23.8476 5.61763V5.55884Z" fill="white" fill-opacity="0.8"/>
<path d="M32.7527 7.25201L33.8492 6.67018C33.9947 6.93393 34.2079 7.1522 34.4658 7.30151C34.7238 7.45083 35.0168 7.52553 35.3132 7.51758C35.9986 7.51758 36.3541 7.15875 36.3541 6.75127C36.3541 6.28702 35.6907 6.1816 34.9636 6.03159C33.9922 5.82886 32.9772 5.49638 32.9772 4.30029C32.9772 3.38193 33.8333 2.53452 35.1841 2.54466C36.2469 2.54466 37.0355 2.97444 37.4824 3.67183L36.4793 4.2415C36.3386 4.02892 36.1471 3.85648 35.9229 3.74048C35.6987 3.62448 35.4492 3.56876 35.198 3.57857C34.5465 3.57857 34.2147 3.90497 34.2147 4.27596C34.2147 4.69358 34.7411 4.81116 35.5635 4.99564C36.5011 5.19837 37.5639 5.51868 37.5639 6.72694C37.5639 7.53786 36.8786 8.61029 35.2536 8.59812C34.0618 8.59812 33.2294 8.10955 32.7507 7.24998" fill="white" fill-opacity="0.8"/>
<path d="M40.8565 5.90348L39.8951 6.97185V8.4842H38.6834V3.08684e-05H39.8951V5.55478L42.4676 2.67199H43.9435L41.7127 5.15946L43.9991 8.4842H42.6285L40.8565 5.90348Z" fill="white" fill-opacity="0.8"/>
<path d="M15.3604 2.55648C13.9202 2.55648 12.7144 3.5093 12.7144 5.09058V8.48425H13.95V5.2406C13.95 4.28777 14.4863 3.71811 15.4021 3.71811C16.3179 3.71811 16.7747 4.28777 16.7747 5.2406V8.48425H18.0044V5.08855C18.0044 3.50727 16.7986 2.55445 15.3584 2.55445" fill="white" fill-opacity="0.8"/>
</g>
<defs>
<clipPath id="clip0_101_1029">
<rect width="43.5" height="8.5" fill="white" transform="scale(1.01149)"/>
</clipPath>
</defs>
</svg>
