<svg width="31" height="10" viewBox="0 0 31 10" fill="none" xmlns="http://www.w3.org/2000/svg">
<path d="M13.3052 0.00605696L8.11474 3.90068C7.87079 2.94274 7.30702 2.09125 6.51225 1.48042C5.71749 0.869586 4.73698 0.534139 3.72521 0.52695H0V9.47911H3.72521C4.74237 9.4925 5.73338 9.16471 6.5324 8.55061C7.33146 7.93646 7.89006 7.07325 8.11474 6.10539L13.3052 10L18.4957 6.10539V9.47911H24.3505V7.66204H20.4887V0.520893H18.3591V3.89461L13.4356 7.78921L12.3739 6.88068L14.7705 5.06361L17.2974 3.11932L15.8322 1.95033L10.9087 5.71168L9.84697 4.80314L14.7705 1.16899L13.3052 0V0.00605696ZM1.99299 2.33798H3.58864C3.91882 2.3386 4.24499 2.40885 4.54478 2.54391C4.84928 2.68054 5.12349 2.87396 5.3519 3.11326C5.59229 3.36515 5.78189 3.659 5.91068 3.97939C6.17545 4.66036 6.17545 5.41232 5.91068 6.09329C5.79024 6.41271 5.61142 6.70825 5.38294 6.96546C5.16087 7.21832 4.88835 7.42439 4.58201 7.57118C4.26648 7.71979 3.92041 7.79643 3.57 7.79529H1.99299V2.34403V2.33798ZM30.9938 7.66204V9.47911H25.1452V0.520893H27.2748V7.66204H31H30.9938Z" fill="white" fill-opacity="0.8"/>
</svg>
